<?xml version="1.0" encoding="UTF-8" standalone="no"?>
<svg width="217px" height="237px" viewBox="0 0 217 237" version="1.1" xmlns="http://www.w3.org/2000/svg" xmlns:xlink="http://www.w3.org/1999/xlink" xmlns:sketch="http://www.bohemiancoding.com/sketch/ns">
    <!-- Generator: Sketch 3.2.2 (9983) - http://www.bohemiancoding.com/sketch -->
    <title>Imported Layers</title>
    <desc>Created with Sketch.</desc>
    <defs>
        <path id="path-1" d="M8.129,16.977 C12.579,16.977 16.186,13.37 16.186,8.922 C16.186,4.473 12.579,0.863 8.129,0.863 C3.68,0.863 0.073,4.473 0.073,8.922 C0.073,13.37 3.68,16.977 8.129,16.977 L8.129,16.977 Z"></path>
        <path id="path-3" d="M0.696,0.262 L154.804,0.262 L154.804,25.128 L0.696,25.128 L0.696,0.262 Z"></path>
    </defs>
    <g id="Page-1" stroke="none" stroke-width="1" fill="none" fill-rule="evenodd" sketch:type="MSPage">
        <g id="Imported-Layers" sketch:type="MSLayerGroup">
            <path d="M8.622,8.041 L8.622,68.302 L8.622,155.838 L8.622,167.166 C8.622,167.81 9.622,167.81 9.622,167.166 L9.622,106.905 L9.622,19.37 L9.622,8.041 C9.622,7.396 8.622,7.396 8.622,8.041" id="Fill-1" fill="#4C301A" sketch:type="MSShapeGroup"></path>
            <g id="Group-4" transform="translate(1.000000, 177.000000)">
                <mask id="mask-2" sketch:name="Clip 3" fill="white">
                    <use xlink:href="#path-1"></use>
                </mask>
                <g id="Clip-3"></g>
                <path d="M0.073,0.863 L16.186,0.863 L16.186,16.977 L0.073,16.977 L0.073,0.863 Z" id="Fill-2" fill="#C12D2A" sketch:type="MSShapeGroup" mask="url(#mask-2)"></path>
            </g>
            <path d="M9.129,194.477 C4.411,194.477 0.573,190.64 0.573,185.922 C0.573,181.203 4.411,177.363 9.129,177.363 C13.847,177.363 17.686,181.203 17.686,185.922 C17.686,190.64 13.847,194.477 9.129,194.477 L9.129,194.477 Z M9.129,178.363 C4.962,178.363 1.573,181.754 1.573,185.922 C1.573,190.088 4.962,193.478 9.129,193.478 C13.296,193.478 16.686,190.088 16.686,185.922 C16.686,181.754 13.296,178.363 9.129,178.363 L9.129,178.363 Z" id="Fill-5" fill="#C12D2A" sketch:type="MSShapeGroup"></path>
            <g id="Group-9" transform="translate(62.000000, 194.000000)">
                <mask id="mask-4" sketch:name="Clip 7" fill="white">
                    <use xlink:href="#path-3"></use>
                </mask>
                <g id="Clip-7"></g>
                <path d="M0.696,0.262 L154.804,0.262 L154.804,25.128 L0.696,25.128 L0.696,0.262 Z" id="Fill-6" fill="#4C301A" sketch:type="MSShapeGroup" mask="url(#mask-4)"></path>
                <path d="M0.696,1.262 L146.817,1.262 L154.805,1.262 C154.472,0.929 154.138,0.595 153.805,0.262 L153.805,25.128 C154.138,24.795 154.472,24.461 154.805,24.128 L8.683,24.128 L0.696,24.128 C1.03,24.461 1.363,24.795 1.696,25.128 L1.696,0.262 C1.696,-1.028 -0.304,-1.028 -0.304,0.262 L-0.304,25.128 C-0.304,25.673 0.151,26.128 0.696,26.128 L146.817,26.128 L154.805,26.128 C155.35,26.128 155.805,25.673 155.805,25.128 L155.805,0.262 C155.805,-0.283 155.35,-0.738 154.805,-0.738 L8.683,-0.738 L0.696,-0.738 C-0.593,-0.738 -0.593,1.262 0.696,1.262" id="Fill-8" fill="#3A2819" sketch:type="MSShapeGroup" mask="url(#mask-4)"></path>
            </g>
            <path d="M129.417,142.656 L150.304,170.837 L150.737,172.441 L192.375,172.441 L192.375,189.242 L95.672,189.242 L95.672,186.843 L95.758,167.604 L95.672,165.242 L105.853,146.039 L107.146,142.656 L129.417,142.656 Z" id="Fill-10" fill="#4C301A" sketch:type="MSShapeGroup"></path>
            <path d="M112.611,153.844 L106.484,165.883 L107.802,168.222 L120.086,168.262 L120.124,153.808 L112.611,153.844" id="Fill-11" fill="#1A1918" sketch:type="MSShapeGroup"></path>
            <path d="M120.585,168.764 L107.509,168.721 L105.918,165.894 L112.304,153.346 L120.625,153.306 L120.585,168.764 L120.585,168.764 Z M108.095,167.723 L119.587,167.76 L119.623,154.31 L112.919,154.342 L107.051,165.871 L108.095,167.723 L108.095,167.723 Z" id="Fill-12" fill="#FFFFFF" sketch:type="MSShapeGroup"></path>
            <path d="M110.453,152.582 C109.058,155.424 107.581,158.224 106.146,161.045 C105.543,162.227 104.941,163.411 104.34,164.594 C103.434,166.374 104.793,167.974 105.643,169.483 C106.074,170.249 106.932,170.719 107.802,170.722 C111.897,170.735 115.991,170.748 120.086,170.762 C121.451,170.767 122.582,169.621 122.586,168.262 C122.599,163.443 122.611,158.626 122.624,153.808 C122.628,152.45 121.484,151.301 120.124,151.308 C117.62,151.319 115.115,151.357 112.611,151.344 C110.792,151.334 111.209,151.043 110.453,152.582" id="Fill-13" fill="#FFFFFF" sketch:type="MSShapeGroup"></path>
            <path d="M120.095,171.262 L107.8,171.222 C106.734,171.218 105.717,170.632 105.207,169.728 C105.074,169.492 104.928,169.253 104.779,169.011 C103.949,167.651 103.006,166.111 103.894,164.367 L105.699,160.818 C106.184,159.868 106.672,158.92 107.16,157.973 C108.12,156.108 109.08,154.244 110.004,152.361 C110.103,152.159 110.183,151.989 110.248,151.847 C110.556,151.182 110.726,150.815 111.527,150.815 C111.631,150.815 111.754,150.82 111.901,150.826 C112.091,150.833 112.323,150.842 112.614,150.844 L113.729,150.847 C115.015,150.847 116.3,150.836 117.585,150.825 L120.122,150.808 C120.923,150.808 121.671,151.122 122.241,151.694 C122.812,152.268 123.126,153.019 123.124,153.809 L123.086,168.263 C123.081,169.889 121.711,171.262 120.095,171.262 L120.095,171.262 Z M111.527,151.815 C111.402,151.815 111.366,151.825 111.36,151.827 C111.348,151.853 111.25,152.063 111.156,152.267 C111.087,152.415 111.005,152.592 110.902,152.803 C109.975,154.69 109.012,156.56 108.049,158.43 C107.561,159.377 107.074,160.323 106.592,161.271 L104.785,164.82 C104.151,166.066 104.871,167.243 105.633,168.489 C105.787,168.741 105.939,168.991 106.078,169.238 C106.414,169.833 107.091,170.22 107.804,170.222 L120.088,170.262 L120.095,170.762 L120.095,170.262 C121.171,170.262 122.083,169.345 122.086,168.261 L122.124,153.807 C122.126,153.283 121.916,152.784 121.532,152.4 C121.151,152.019 120.655,151.808 120.136,151.808 L117.593,151.825 C116.306,151.836 115.018,151.847 113.729,151.847 L112.608,151.844 C112.304,151.842 112.06,151.833 111.863,151.825 C111.73,151.82 111.62,151.815 111.527,151.815 L111.527,151.815 Z" id="Fill-14" fill="#FFFFFF" sketch:type="MSShapeGroup"></path>
            <path d="M165.319077,151.687007 C113.477385,101.540338 9.794,1.247 9.794,1.247 L8.322,2.778 L6.344,5.24 L164.51,164.405 L178.346,164.288 L165.319077,151.687007 Z" id="Fill-15" fill="#4C301A" sketch:type="MSShapeGroup"></path>
            <path d="M162.662,160.507 C156.339,154.144 150.015,147.78 143.691,141.416 C122.139,119.727 100.586,98.038 79.033,76.349 C59.381,56.573 39.729,36.797 20.077,17.021 C16.13,13.048 7.976,6.387 9.315,4.72 C9.618,4.344 9.913,3.966 10.23,3.603 C10.44,3.363 10.685,3.273 10.952,3.295 C12.296,3.404 14.22,6.335 15.26,7.342 C54.971,45.755 94.683,84.169 134.395,122.582 C148.565,136.289 162.734,149.996 176.904,163.702 C177.477,164.256 179.98,163.879 179.719,163.625 C146.16,131.166 112.138,98.27 78.582,65.811 C56.197,44.159 34.042,22.237 11.412,0.84 C11.037,0.484 10.364,0.421 9.998,0.84 C8.835,2.168 7.725,3.524 6.619,4.901 C6.277,5.326 6.204,5.897 6.619,6.315 C40.286,40.195 73.953,74.074 107.619,107.954 C122.66,123.09 137.701,138.225 152.741,153.36 C156.367,157.009 159.992,160.658 163.618,164.307 C164.06,164.752 164.776,165.779 165.492,165.773 C170.104,165.734 174.716,165.695 179.328,165.656 C179.918,165.651 179.955,164.128 179.75,163.719 C179.469,163.156 173.844,163.844 170.937,163.727 C169.379,163.665 167.818,163.754 166.259,163.767 L159.537724,152.606158" id="Fill-16" fill="#4C301A" sketch:type="MSShapeGroup"></path>
            <path id="Fill-17" fill="#3A2819" sketch:type="MSShapeGroup"></path>
            <path id="Fill-18" fill="#3A2819" sketch:type="MSShapeGroup"></path>
            <path id="Stroke-19" stroke="#3A2819" stroke-linecap="square" sketch:type="MSShapeGroup"></path>
            <path d="M7,162 L11.5,162 L11.5,166.665473 L11.5,171.5 L7,171.5 L7,162 Z" id="Fill-20" fill="#4C301A" sketch:type="MSShapeGroup"></path>
            <path d="M6.5,161.5 L12,161.5 L12,172 L6.5,172 L6.5,161.5 Z M7.5,171 L11,171 L11,162.5 L7.5,162.5 L7.5,171 Z" id="Fill-21" fill="#4C301A" sketch:type="MSShapeGroup"></path>
            <path d="M106.5,220.5 C106.5,212.492 100.008,206 92,206 C83.992,206 77.5,212.492 77.5,220.5 C77.5,228.508 83.992,235 92,235 C100.008,235 106.5,228.508 106.5,220.5" id="Fill-22" fill="#4C301A" sketch:type="MSShapeGroup"></path>
            <path d="M92,236.5 C83.178,236.5 76,229.322 76,220.5 C76,211.678 83.178,204.5 92,204.5 C100.822,204.5 108,211.678 108,220.5 C108,229.322 100.822,236.5 92,236.5 L92,236.5 Z M92,207.5 C84.832,207.5 79,213.332 79,220.5 C79,227.668 84.832,233.5 92,233.5 C99.168,233.5 105,227.668 105,220.5 C105,213.332 99.168,207.5 92,207.5 L92,207.5 Z" id="Fill-23" fill="#FFFFFF" sketch:type="MSShapeGroup"></path>
            <path d="M209,220.5 C209,212.492 202.508,206 194.5,206 C186.492,206 180,212.492 180,220.5 C180,228.508 186.492,235 194.5,235 C202.508,235 209,228.508 209,220.5" id="Fill-24" fill="#4C301A" sketch:type="MSShapeGroup"></path>
            <path d="M194.5,236.5 C185.678,236.5 178.5,229.322 178.5,220.5 C178.5,211.678 185.678,204.5 194.5,204.5 C203.322,204.5 210.5,211.678 210.5,220.5 C210.5,229.322 203.322,236.5 194.5,236.5 L194.5,236.5 Z M194.5,207.5 C187.332,207.5 181.5,213.332 181.5,220.5 C181.5,227.668 187.332,233.5 194.5,233.5 C201.668,233.5 207.5,227.668 207.5,220.5 C207.5,213.332 201.668,207.5 194.5,207.5 L194.5,207.5 Z" id="Fill-25" fill="#FFFFFF" sketch:type="MSShapeGroup"></path>
        </g>
    </g>
</svg>